<?xml version="1.0" standalone="no"?>
<!DOCTYPE svg PUBLIC "-//W3C//DTD SVG 20010904//EN"
 "http://www.w3.org/TR/2001/REC-SVG-20010904/DTD/svg10.dtd">
<svg version="1.0" xmlns="http://www.w3.org/2000/svg"
 width="271.000000pt" height="271.000000pt" viewBox="0 0 271.000000 271.000000"
 preserveAspectRatio="xMidYMid meet">
<metadata>
Created by potrace 1.11, written by Peter Selinger 2001-2013
</metadata>
<g transform="translate(0.000000,271.000000) scale(0.100000,-0.100000)"
fill="#000000" stroke="none">
<path d="M1410 2694 c-394 -58 -783 -402 -987 -874 -43 -100 -99 -266 -108
-322 -3 -18 -10 -53 -15 -78 -32 -144 -34 -414 -6 -575 50 -279 178 -516 361
-664 27 -23 52 -41 55 -41 3 0 5 80 5 178 0 250 21 399 84 591 82 248 183 415
443 727 274 330 337 447 383 709 13 78 2 330 -15 349 -13 13 -107 14 -200 0z"/>
<path d="M1914 2498 c0 -253 -48 -445 -161 -643 -64 -111 -116 -183 -277 -380
-147 -179 -221 -277 -274 -360 -38 -62 -113 -221 -136 -290 -19 -61 -52 -218
-62 -300 -15 -116 -7 -495 10 -512 11 -11 219 -10 286 2 358 63 698 337 913
736 56 104 136 304 152 384 2 6 10 39 19 74 9 35 19 86 22 115 3 28 9 67 13
86 9 39 7 350 -2 390 -3 14 -8 43 -12 65 -13 91 -78 300 -96 311 -5 3 -9 11
-9 18 0 15 -45 93 -97 167 -43 63 -145 161 -209 204 -85 57 -81 61 -80 -67z"/>
</g>
</svg>
